<?xml version="1.0" standalone="no"?>
<!DOCTYPE svg PUBLIC "-//W3C//DTD SVG 20010904//EN"
 "http://www.w3.org/TR/2001/REC-SVG-20010904/DTD/svg10.dtd">
<svg version="1.0" xmlns="http://www.w3.org/2000/svg"
 width="257.000000pt" height="257.000000pt" viewBox="0 0 257.000000 257.000000"
 preserveAspectRatio="xMidYMid meet">
<metadata>
Created by potrace 1.11, written by Peter Selinger 2001-2013
</metadata>
<g transform="translate(0.000000,257.000000) scale(0.100000,-0.100000)"
fill="#000000" stroke="none">
<path d="M1028 2340 c-15 -4 -33 -13 -40 -19 -53 -46 -87 -59 -151 -59 -76 -1
-134 -23 -147 -58 -5 -12 -28 -42 -52 -66 -24 -24 -50 -56 -58 -71 -8 -16 -30
-43 -50 -61 -20 -18 -44 -52 -54 -76 -9 -23 -37 -69 -62 -101 -25 -33 -40 -59
-34 -59 15 0 5 -35 -41 -145 -4 -11 -11 -54 -15 -95 -6 -78 -26 -140 -43 -140
-5 0 -11 6 -14 13 -2 6 -3 3 -1 -8 2 -11 -15 -64 -37 -119 -22 -55 -41 -118
-43 -139 -3 -35 -2 -37 14 -22 10 9 17 31 18 53 0 51 17 91 44 102 13 5 18 9
11 9 -14 1 18 61 43 81 19 17 19 -11 -1 -50 -8 -16 -14 -33 -13 -37 4 -14 -25
-137 -43 -179 -35 -83 -43 -151 -29 -259 8 -58 19 -107 28 -117 8 -10 12 -18
9 -18 -3 0 0 -21 8 -47 9 -31 11 -51 5 -57 -18 -18 -11 -34 12 -30 l23 5 -23
-12 c-12 -7 -22 -18 -22 -26 0 -10 -6 -12 -20 -8 -14 4 -20 2 -20 -8 0 -15 53
-53 103 -75 20 -9 27 -17 23 -28 -3 -9 0 -22 8 -30 18 -17 10 -52 -15 -67 -20
-12 -26 -37 -10 -37 6 0 9 -12 7 -27 -2 -24 -6 -28 -29 -25 -21 2 -30 -3 -37
-20 -5 -13 -9 -17 -9 -10 -1 21 -41 -6 -41 -28 0 -10 -8 -21 -17 -23 -10 -3
248 -5 574 -6 333 0 602 3 615 8 25 10 68 50 136 128 39 44 50 50 105 60 107
20 237 35 263 30 18 -3 31 4 54 30 17 18 30 40 30 48 0 21 22 19 75 -6 54 -25
57 -44 14 -85 -25 -24 -39 -29 -80 -29 -57 0 -67 -19 -15 -29 36 -7 97 12 110
33 4 6 13 8 19 5 7 -4 9 -4 5 0 -3 4 5 24 18 43 13 20 24 42 24 49 0 8 7 14
15 14 8 0 15 5 15 10 0 19 20 10 59 -25 21 -20 42 -47 45 -61 4 -14 19 -44 33
-67 15 -23 39 -68 55 -100 l29 -58 77 3 c72 3 77 5 80 26 2 13 -1 28 -6 35 -5
7 -8 32 -7 57 1 25 -3 48 -9 52 -6 4 -9 43 -7 92 1 47 -2 100 -8 118 -5 18
-19 62 -31 98 -12 36 -31 100 -42 143 -12 43 -24 74 -27 68 -4 -6 -12 -7 -21
-1 -13 9 -13 10 0 10 12 1 11 4 -4 15 -10 7 -15 18 -11 24 3 6 1 11 -6 11 -10
0 -10 3 -1 12 21 21 13 44 -28 84 -34 33 -110 144 -110 160 0 3 -13 22 -29 42
-65 83 -125 196 -132 250 -12 87 -54 158 -146 249 -45 45 -104 115 -131 155
-62 96 -111 157 -194 242 -38 37 -68 72 -68 76 0 4 -15 13 -32 20 -54 20 -123
54 -126 63 -2 4 -9 7 -16 7 -7 0 -21 9 -31 20 -10 11 -22 17 -26 14 -5 -3 -9
-1 -9 4 0 5 -17 12 -39 16 -21 3 -58 15 -82 26 -45 20 -113 25 -161 10z m-118
-373 c0 -5 4 -5 10 -2 12 8 41 -21 60 -60 8 -16 18 -32 21 -35 3 -3 12 -16 18
-28 7 -13 15 -21 18 -18 10 9 52 -46 46 -61 -3 -7 0 -20 7 -29 7 -8 23 -35 36
-59 27 -55 21 -61 -64 -67 -35 -2 -67 -9 -70 -14 -4 -6 -16 -14 -27 -18 -36
-15 32 -27 136 -24 89 2 100 1 128 -21 41 -31 86 -108 73 -124 -6 -7 -9 -51
-8 -99 2 -78 5 -90 26 -108 13 -11 27 -20 33 -20 9 0 7 -27 -7 -130 -6 -45
-18 -80 -27 -80 -5 0 -9 -8 -9 -19 0 -10 -7 -24 -15 -31 -8 -7 -15 -21 -15
-31 0 -11 -6 -19 -13 -19 -6 0 -18 -13 -25 -30 -8 -16 -20 -30 -28 -30 -9 0
-27 -13 -42 -29 -15 -17 -43 -37 -63 -45 -19 -8 -41 -22 -49 -30 -7 -9 -26
-16 -43 -16 -17 0 -56 -5 -87 -12 -51 -10 -60 -9 -107 13 -28 13 -49 27 -47
31 3 4 -3 8 -14 8 -15 0 -24 15 -41 65 -21 64 -26 95 -16 95 9 0 45 -40 45
-49 0 -11 17 -17 78 -26 36 -6 49 -3 83 19 21 15 39 30 39 35 0 23 -13 39 -27
34 -12 -5 -14 -1 -9 15 7 20 4 21 -39 18 -87 -7 -106 12 -60 62 23 25 30 26
112 27 l88 0 0 -27 c-1 -16 5 -28 12 -28 7 0 13 5 13 10 0 6 5 10 11 10 6 0
30 14 54 30 24 17 57 30 73 30 31 0 42 17 42 67 0 24 -43 48 -105 60 l-30 5
33 -28 34 -29 -37 -13 c-29 -11 -34 -16 -24 -28 8 -10 8 -14 0 -15 -16 -2 -76
-1 -108 0 -26 2 -27 3 -9 16 10 7 15 19 11 25 -4 6 -2 16 3 23 15 19 23 77 11
77 -6 0 -8 7 -5 16 3 8 2 12 -4 9 -6 -3 -10 -12 -10 -19 0 -26 -35 -46 -69
-40 -18 4 -50 1 -71 -6 -21 -7 -44 -10 -52 -6 -68 35 -80 49 -67 82 l8 24 -48
-28 c-27 -15 -47 -30 -45 -33 8 -13 -25 -30 -63 -34 -35 -3 -37 -2 -18 11 15
11 17 17 7 23 -8 5 -11 30 -10 74 2 76 5 79 86 85 12 1 22 7 22 13 0 6 -9 9
-20 6 -12 -3 -20 0 -20 7 0 7 29 21 63 31 l64 18 -15 29 -14 30 -70 -7 c-65
-7 -70 -6 -66 11 3 16 12 19 58 17 30 0 70 -4 88 -8 31 -7 47 8 20 18 -7 2 4
8 24 12 l38 7 -34 23 c-48 32 -70 38 -148 36 -67 -1 -69 -1 -63 20 4 12 8 27
9 34 1 6 9 24 19 38 9 15 17 29 17 33 0 3 9 19 21 35 11 16 18 36 15 44 -3 8
-1 17 5 20 5 4 7 11 4 16 -4 5 -1 9 4 9 6 0 11 6 11 13 0 41 122 107 192 104
27 -1 48 -6 48 -10z m25 -887 c-3 -5 -12 -10 -20 -10 -8 0 -17 5 -20 10 -4 6
5 10 20 10 15 0 24 -4 20 -10z m-304 -60 c35 -32 38 -38 33 -72 -4 -21 -9 -38
-13 -37 -3 0 -19 16 -35 35 -22 27 -30 48 -33 87 -1 29 0 45 3 37 4 -8 24 -31
45 -50z m-276 -40 c3 -5 1 -10 -4 -10 -6 0 -11 5 -11 10 0 6 2 10 4 10 3 0 8
-4 11 -10z m1985 -40 c0 -5 -4 -10 -10 -10 -5 0 -10 5 -10 10 0 6 5 10 10 10
6 0 10 -4 10 -10z m17 -12 c-3 -8 -6 -5 -6 6 -1 11 2 17 5 13 3 -3 4 -12 1
-19z m-427 -482 c0 -24 -30 -41 -48 -29 -18 11 -17 43 1 55 14 9 47 -9 47 -26z
m-100 -21 c0 -8 -4 -15 -9 -15 -5 0 -24 -3 -42 -6 l-34 -5 24 20 c27 24 61 28
61 6z m-150 -54 c-28 -16 -60 -22 -60 -12 0 10 22 18 55 20 16 0 17 -1 5 -8z
m-1282 -107 c-1 -5 -9 -9 -16 -10 -10 -2 -11 1 -1 12 12 14 24 13 17 -2z"/>
<path d="M787 1522 c15 -10 20 -68 9 -99 -4 -15 -3 -23 3 -23 6 0 11 7 11 15
0 7 8 19 18 24 9 6 12 11 6 11 -6 0 -11 11 -11 25 0 23 3 25 40 25 57 0 35 16
-33 24 -30 4 -49 3 -43 -2z"/>
<path d="M926 1509 c-37 -29 -34 -54 6 -57 31 -3 31 -2 13 18 -18 20 -18 20 3
20 12 0 22 -4 22 -10 0 -5 8 -10 19 -10 26 0 44 -23 29 -38 -6 -6 -8 -15 -3
-19 4 -5 10 -2 12 5 3 6 11 12 18 12 22 0 30 22 12 32 -9 5 -14 15 -11 22 3 7
-2 16 -11 20 -9 3 -13 10 -10 16 12 20 -71 11 -99 -11z"/>
<path d="M1175 1462 c-23 -13 -26 -17 -12 -20 9 -2 17 -8 17 -13 0 -16 27 -39
45 -39 8 0 19 8 22 18 4 9 11 20 17 24 6 4 -3 13 -22 21 -18 7 -29 16 -25 20
11 12 -10 6 -42 -11z"/>
<path d="M766 1335 c-3 -8 -1 -15 4 -15 6 0 10 7 10 15 0 8 -2 15 -4 15 -2 0
-6 -7 -10 -15z"/>
<path d="M910 1286 c0 -2 7 -9 15 -16 13 -11 14 -10 9 4 -5 14 -24 23 -24 12z"/>
<path d="M1310 1031 c0 -6 4 -12 8 -15 5 -3 9 1 9 9 0 8 -4 15 -9 15 -4 0 -8
-4 -8 -9z"/>
<path d="M896 720 c-15 -5 -16 -9 -7 -14 7 -5 18 -3 24 3 14 14 6 20 -17 11z"/>
<path d="M155 1050 c-3 -5 -1 -10 4 -10 6 0 11 5 11 10 0 6 -2 10 -4 10 -3 0
-8 -4 -11 -10z"/>
<path d="M158 333 c7 -3 16 -2 19 1 4 3 -2 6 -13 5 -11 0 -14 -3 -6 -6z"/>
<path d="M1 238 l-1 -98 60 0 c57 0 59 1 51 23 -4 12 -18 23 -30 25 -16 3 -21
10 -21 35 0 50 -11 79 -27 73 -8 -3 -17 3 -23 17 -6 15 -9 -7 -9 -75z"/>
<path d="M278 283 c7 -3 16 -2 19 1 4 3 -2 6 -13 5 -11 0 -14 -3 -6 -6z"/>
<path d="M207 255 c-15 -6 -24 -14 -21 -18 11 -11 37 -8 57 7 25 19 1 27 -36
11z"/>
</g>
</svg>
